<svg width="24" height="24" viewBox="0 0 24 24" fill="none" xmlns="http://www.w3.org/2000/svg">
<path d="M20.5791 3.75L12.8555 9.33982L14.2917 6.04558L20.5791 3.75Z" fill="#E17726"/>
<path d="M3.43966 3.75732L9.7102 6.04672L11.074 9.38415L3.43966 3.75732ZM17.4789 15.6387L20.8926 15.7023L19.6996 19.6665L15.534 18.5447L17.4789 15.6387ZM6.52976 15.6387L8.46736 18.5447L4.30887 19.6666L3.12305 15.7023L6.52976 15.6387Z" fill="#E27625"/>
<path d="M10.8905 8.53379L11.03 12.941L6.85547 12.7552L8.04291 11.003L8.05795 10.9862L10.8905 8.53379ZM13.0788 8.48462L15.9546 10.9863L15.9695 11.0031L17.157 12.7553L12.9833 12.941L13.0788 8.48462ZM8.59155 15.6513L10.8709 17.3884L8.22312 18.6388L8.59155 15.6513ZM15.4214 15.651L15.7822 18.6389L13.1418 17.3883L15.4214 15.651Z" fill="#E27625"/>
<path d="M13.1953 17.2246L15.8747 18.4936L13.3824 19.6522L13.4082 18.8864L13.1953 17.2246ZM10.807 17.2252L10.6025 18.8739L10.6193 19.6513L8.12109 18.4936L10.807 17.2252Z" fill="#D5BFB2"/>
<path d="M10.0391 13.5157L10.7393 14.955L8.35547 14.272L10.0391 13.5157ZM13.9755 13.5159L15.6671 14.272L13.2755 14.9548L13.9755 13.5159Z" fill="#233447"/>
<path d="M8.76701 15.6367L8.3817 18.7342L6.31641 15.7044L8.76701 15.6367ZM15.2322 15.6368L17.6829 15.7044L15.6099 18.7344L15.2322 15.6368ZM17.2106 12.5802L15.4271 14.3581L14.052 13.7434L13.3936 15.0972L12.9621 12.7693L17.2106 12.5802ZM6.78764 12.5802L11.037 12.7693L10.6053 15.0972L9.94685 13.7436L8.57906 14.3581L6.78764 12.5802Z" fill="#CC6228"/>
<path d="M6.66797 12.2149L8.6858 14.2176L8.75569 16.1948L6.66797 12.2149ZM17.3342 12.2113L15.2426 16.1983L15.3214 14.2176L17.3342 12.2113ZM10.9388 12.3369L11.02 12.8369L11.2207 14.0824L11.0917 17.9079L10.4817 14.8348L10.4815 14.803L10.9388 12.3369ZM13.0602 12.3299L13.5187 14.803L13.5185 14.8348L12.907 17.9156L12.8828 17.145L12.7874 14.0597L13.0602 12.3299Z" fill="#E27525"/>
<path d="M15.5019 14.1376L15.4336 15.8554L13.305 17.4775L12.8746 17.1802L13.357 14.7501L15.5019 14.1376ZM8.50781 14.1376L10.6452 14.7501L11.1276 17.1802L10.6973 17.4775L8.56856 15.8553L8.50781 14.1376Z" fill="#F5841F"/>
<path d="M7.71094 18.1129L10.4343 19.375L10.4228 18.8361L10.6506 18.6404H13.346L13.5821 18.8354L13.5647 19.3739L16.2708 18.1161L14.954 19.1804L13.3617 20.25H10.6288L9.03759 19.176L7.71094 18.1129Z" fill="#C0AC9D"/>
<path d="M13.0013 17.0554L13.3864 17.3215L13.612 19.0824L13.2855 18.8127H10.7207L10.4004 19.0878L10.6186 17.3216L11.0038 17.0554H13.0013Z" fill="#161616"/>
<path d="M20.0729 3.90479L21 6.62525L20.421 9.37597L20.8333 9.68704L20.2754 10.1034L20.6947 10.4202L20.1394 10.9147L20.4803 11.1562L19.5757 12.1896L15.8653 11.1329L15.8332 11.116L13.1594 8.9099L20.0729 3.90479ZM3.92714 3.90479L10.8407 8.9099L8.16684 11.116L8.13471 11.1329L4.42432 12.1896L3.51968 11.1562L3.86027 10.9149L3.30537 10.4202L3.72387 10.1037L3.15757 9.68621L3.58542 9.37494L3 6.62539L3.92714 3.90479Z" fill="#763E1A"/>
<path d="M15.6922 10.9019L19.6236 12.0214L20.9008 15.8718H17.5311L15.2094 15.9004L16.8979 12.6812L15.6922 10.9019ZM8.32456 10.9019L7.11863 12.6812L8.80732 15.9004L6.48666 15.8718H3.12305L4.3931 12.0215L8.32456 10.9019ZM14.4963 6.02734L13.3967 8.93226L13.1633 12.8565L13.074 14.0865L13.0669 17.2286H10.9497L10.9429 14.0924L10.8533 12.8554L10.6198 8.93226L9.52036 6.02734H14.4963Z" fill="#F5841F"/>
</svg>
